<svg xmlns="http://www.w3.org/2000/svg" xmlns:svgjs="http://svgjs.com/svgjs" xmlns:xlink="http://www.w3.org/1999/xlink" width="288" height="288"><svg xmlns="http://www.w3.org/2000/svg" width="288" height="288" version="1.0" viewBox="0 0 466 466"><g fill="#fff" class="color000 svgShape" transform="matrix(.1 0 0 -.1 0 466)"><path d="M3085 4211c-8-15 3-31 21-31 9 0 14 7 12 17-4 20-24 28-33 14zM3621 4020c-41-11-95-32-120-46-25-15-147-127-271-250-257-255-226-238-446-249-131-7-195-20-262-54-53-27-198-154-207-181-9-27 24-97 90-191 30-43 55-82 55-87 0-5-52-59-115-120-63-62-115-119-115-128 0-9 9-27 20-41 16-20 17-28 7-44-6-10-17-19-24-19-7 0-20-11-28-24-9-13-28-26-43-29-16-3-33-16-39-29-7-16-20-24-39-26-32-2-64-34-64-63 0-12-7-19-18-19-10 0-27-7-38-15-10-8-31-15-45-15-14 0-35-9-46-19-18-17-23-18-39-6-24 18-66 19-82 3-17-17-152-19-152-3 0 13-42 55-54 55-4 0-28 22-52 49-40 45-147 111-179 111-8 0-11 30-11 98 1 90-1 102-31 163-61 124-181 207-313 217l-66 4 19 57c16 46 18 73 14 150-5 83-3 98 14 122 23 33 52 99 46 105-14 15-241-196-330-306-199-247-321-509-382-820-23-114-31-401-16-527 69-566 392-1058 887-1349 285-167 651-257 981-240 359 19 668 126 968 338 88 61 310 272 353 334l21 31-47-8c-26-4-55-10-64-14-12-5-25 7-51 47-73 114-173 172-302 173-97 0-147-14-214-60-35-24-53-32-55-23-27 87-42 119-76 164-46 61-105 105-170 127l-45 15-8 63c-4 35-21 91-37 124-19 40-30 81-33 125-2 36-14 88-27 117l-22 52 26 31c14 18 26 37 26 44 0 7 13 22 30 34 20 15 30 31 30 48 0 19 7 28 30 35 20 7 33 22 42 45 6 19 16 34 21 34 4 0 15 16 23 36 8 19 28 43 44 52 16 9 34 27 39 39 9 20 14 21 37 13 25-10 33-4 143 105 65 63 122 115 128 115 6 0 48-25 92-55 104-72 164-99 190-86 31 17 137 140 166 194 41 73 54 136 65 298 5 80 12 154 16 165 4 10 109 123 234 249 247 251 279 294 306 413 19 87 17 333-4 354-8 8-60 13-159 15-123 3-160 0-222-17zm338-36c3-3-53-63-124-135l-130-131-270-160c-148-88-276-166-283-173-11-10-1-16 52-30 36-10 66-22 66-27 0-16-255-291-414-448l-147-145-44 50-44 50-119-119c-134-133-128-131-196-56-28 31-34 44-27 58 5 9 59 66 120 127 61 60 111 113 111 117 0 4-25 42-56 85-31 43-67 100-81 127l-25 48 34 35c115 120 213 161 409 173 217 14 191-1 449 255 258 255 300 283 460 306 54 7 250 2 259-7zm-376-366c-5-7-48-61-96-120-48-60-87-110-87-112 0-2 29-10 65-17 36-7 65-15 65-18 0-3-67-43-148-89-81-45-176-99-212-119l-65-37 45 51c25 28 72 81 104 117 32 37 57 68 55 70-2 2-33 12-68 22l-65 19 205 122c112 67 206 122 208 122 2 1-1-5-6-11zm-946-1077c-59-60-107-116-107-123 0-8 11-30 25-49l26-34-36-28c-19-16-35-35-35-43 0-8-10-14-25-14-30 0-65-32-65-60 0-12-7-20-18-20-27 0-62-29-62-51 0-14-7-19-30-19-21 0-36-8-51-29-12-16-27-27-35-24-14 5-53-13-69-33-16-20-110 4-126 32-10 19-9 26 6 40 12 13 15 27 11 53-13 76-2 112 37 131 18 8 34 24 35 35 2 11 15 30 28 43 13 13 24 34 24 47 0 17 9 29 30 40 18 9 32 26 36 43 10 47 13 52 29 46 20-8 45 13 45 38 0 17 5 18 48 13l47-6 105 105 105 106 64-65 65-64-107-110zm-1779 17c4-31-29-48-53-28-18 15-19 46-2 54 28 12 52 1 55-26zm138-653c15-23 15-27 0-50-27-42-86-26-86 23 0 55 56 72 86 27zm383-350c124-9 126-11 26-19-49-4-95-9-101-11-7-2-15-44-20-102l-8-98-8 90c-5 50-10 96-13 103-3 7-24 12-57 13-29 0-71 4-93 8l-40 9 45 1c25 1 68 4 97 7l51 7 8 96 9 96 9-97 9-96 86-7zm739 133c-3-25-17-32-37-19-19 12-6 41 19 41 16 0 21-5 18-22zm-1190-365c5-17-26-29-40-15-6 6-7 15-3 22 9 14 37 9 43-7zm1764-475c-15-15-26-4-18 18 5 13 9 15 18 6 9-9 9-15 0-24zM2586 3875c-3-9 1-18 10-22 19-7 28 2 21 22-8 19-23 19-31 0zM2387 3843c-15-14-7-43 12-43 23 0 34 23 18 39-13 13-21 14-30 4z" class="color000 svgShape"/><path d="M1766 3723c-11-180-6-170-87-177-38-3-102-9-141-13l-73-7 138-12c76-6 141-14 144-18 4-3 12-66 18-139 7-72 13-130 14-127 1 3 8 63 15 133 7 70 16 130 19 133 3 3 64 10 136 16 72 6 130 12 128 14-1 1-61 8-132 14-72 7-132 14-134 16-2 2-10 63-17 135-7 72-15 133-17 135-2 3-7-44-11-103zM3833 3194c-9-23 13-40 32-24 12 10 13 16 4 26-15 18-28 18-36-2zM1316 2951c-7-11 18-33 27-24 4 3 7 12 7 20 0 15-26 18-34 4zM1737 2719c-32-44 24-99 64-63 24 22 24 46 1 67-25 23-48 21-65-4zM4410 2616c0-9 5-16 10-16 6 0 10 4 10 9 0 6-4 13-10 16-5 3-10-1-10-9zM4280 2521c0-24 25-34 40-16 15 18 5 35-21 35-12 0-19-7-19-19zM3736 2434c-9-22 12-46 38-42 15 2 21 10 21 28 0 20-6 26-26 28-18 2-29-3-33-14zM4415 2441c-6-11 9-23 19-14 9 9 7 23-3 23-6 0-12-4-16-9zM3042 1888c-19-19-14-46 9-59 18-9 25-7 41 9 16 16 18 23 9 41-13 23-40 28-59 9zM2640 1775c0-8 5-15 10-15 6 0 10 7 10 15 0 8-4 15-10 15-5 0-10-7-10-15zM3712 1703c-2-31-4-33-39-34l-38-2 35-6c30-5 36-11 41-41l6-35 2 32c1 28 6 34 34 42l32 9-32 1c-28 1-32 5-36 34l-4 32-1-32z" class="color000 svgShape"/></g></svg></svg>